<svg width="51" height="50" viewBox="0 0 51 50" fill="none" xmlns="http://www.w3.org/2000/svg">
<circle cx="26" cy="25" r="23.5" stroke="#333333" stroke-width="3"/>
<path d="M14.273 37.9584C12.0649 35.7483 9.27344 37.96 8.77304 39.4584C8.77297 37.957 5.53515 35.6943 3.27304 37.9584C1.27342 39.9597 1.77304 41.9588 3.77304 43.9597L8.77304 48.4597L13.273 43.9597C14.2734 42.9609 16.7734 40.4609 14.273 37.9584Z" fill="white" stroke="#333333" stroke-width="3" stroke-linecap="round" stroke-linejoin="round"/>
<path d="M48.273 4.95836C46.0649 2.74833 43.2734 4.96 42.773 6.45836C42.773 4.957 39.5351 2.69428 37.273 4.95836C35.2734 6.95973 35.773 8.95882 37.773 10.9597L42.773 15.4597L47.273 10.9597C48.2734 9.96094 50.7734 7.46094 48.273 4.95836Z" fill="white" stroke="#333333" stroke-width="3" stroke-linecap="round" stroke-linejoin="round"/>
<path d="M12.5 23C12.5 21.6667 13.3 19 16.5 19C19.7 19 20.5 21.6667 20.5 23" stroke="#333333" stroke-width="3" stroke-linecap="round" stroke-linejoin="round"/>
<path d="M31 23C31 21.6667 31.8 19 35 19C38.2 19 39 21.6667 39 23" stroke="#333333" stroke-width="3" stroke-linecap="round" stroke-linejoin="round"/>
<path d="M14.5 32C15.8333 33.5 20 36.5 26 36.5C32 36.5 35.5 33.5 36.5 32" stroke="#333333" stroke-width="3" stroke-linecap="round" stroke-linejoin="round"/>
</svg>
