<svg width="51" height="50" viewBox="0 0 51 50" fill="none" xmlns="http://www.w3.org/2000/svg">
<path fill-rule="evenodd" clip-rule="evenodd" d="M28.1678 5.12092C25.7904 3.78191 22.5667 2.8911 18.1708 3.01073C13.6734 3.13312 10.5249 4.33931 8.3189 6.04213C6.10742 7.7492 4.72696 10.0454 3.92509 12.5397C3.12005 15.0438 2.91144 17.7126 3.03134 20.0706C3.15201 22.4439 3.59953 24.3964 4.02269 25.4541C5.59076 29.3739 4.52057 33.2341 3.57692 35.4347C4.48147 35.7816 5.66023 35.8687 6.96004 35.6757C8.79043 35.4038 10.3724 34.645 11.0702 33.9471C11.4565 33.5608 12.0223 33.4151 12.5472 33.5667C17.9581 35.1299 22.0212 34.9994 25.0727 34.0243C28.117 33.0515 30.2922 31.1944 31.8587 29.0583C33.4361 26.9073 34.3869 24.4828 34.9415 22.4491C35.5008 20.3986 35.6309 18.846 35.6309 18.5078C35.6309 18.1191 35.5156 14.0545 33.2719 10.2004C32.1641 8.29757 30.5466 6.46067 28.1678 5.12092ZM35.8646 8.69105C38.4961 13.2112 38.6309 17.8965 38.6309 18.5078C38.6309 19.1696 38.4485 20.9921 37.8358 23.2384C37.2186 25.5015 36.1381 28.2958 34.278 30.8324C32.407 33.3837 29.7384 35.6828 25.9859 36.8819C22.4089 38.0249 17.9731 38.1283 12.4951 36.6659C11.1634 37.6571 9.26502 38.3662 7.40081 38.6431C5.18781 38.9718 2.53293 38.7605 0.653909 37.1503C0.112713 36.6865 -0.0273796 35.9059 0.318759 35.2828C1.09776 33.8806 2.66891 30.147 1.2373 26.5684C0.660456 25.1265 0.167836 22.8313 0.0352073 20.223C-0.0981952 17.5994 0.126722 14.5527 1.06905 11.6215C2.01453 8.68047 3.69525 5.82138 6.48576 3.66734C9.28178 1.50905 13.0761 0.148261 18.0892 0.0118356C22.9437 -0.120274 26.7204 0.862614 29.64 2.50699C32.5584 4.15064 34.5348 6.40685 35.8646 8.69105ZM42.532 15.5035C41.9773 16.1189 42.0266 17.0674 42.6419 17.622C45.5728 20.2637 46.842 24.0644 47.1716 27.7753C47.5026 31.5021 46.8621 34.8932 46.239 36.4507C44.671 40.3704 45.7411 44.2306 46.6848 46.4312C45.7802 46.7781 44.6015 46.8652 43.3017 46.6722C41.4713 46.4003 39.8893 45.6415 39.1915 44.9437C38.8052 44.5574 38.2394 44.4116 37.7145 44.5633C32.9198 45.9484 29.1843 46.003 26.2769 45.3212C23.381 44.6421 21.2143 43.2113 19.5762 41.469C19.0088 40.8655 18.0595 40.8362 17.4559 41.4037C16.8523 41.9711 16.8231 42.9204 17.3905 43.524C19.3916 45.6524 22.0656 47.415 25.592 48.242C28.9287 49.0244 32.9444 48.9498 37.7666 47.6624C39.0983 48.6536 40.9967 49.3627 42.8609 49.6396C45.0739 49.9683 47.7288 49.7571 49.6078 48.1468C50.149 47.683 50.2891 46.9024 49.9429 46.2793C49.1639 44.8771 47.5928 41.1436 49.0244 37.5649C49.8466 35.5096 50.5264 31.6368 50.1598 27.5099C49.7918 23.3671 48.3456 18.7242 44.6505 15.3936C44.0351 14.839 43.0866 14.8882 42.532 15.5035ZM10.6309 21.5078C12.0116 21.5078 13.1309 20.3885 13.1309 19.0078C13.1309 17.6271 12.0116 16.5078 10.6309 16.5078C9.25014 16.5078 8.13085 17.6271 8.13085 19.0078C8.13085 20.3885 9.25014 21.5078 10.6309 21.5078ZM21.1309 19.0078C21.1309 20.3885 20.0116 21.5078 18.6309 21.5078C17.2501 21.5078 16.1309 20.3885 16.1309 19.0078C16.1309 17.6271 17.2501 16.5078 18.6309 16.5078C20.0116 16.5078 21.1309 17.6271 21.1309 19.0078ZM26.6309 21.5078C28.0116 21.5078 29.1309 20.3885 29.1309 19.0078C29.1309 17.6271 28.0116 16.5078 26.6309 16.5078C25.2501 16.5078 24.1309 17.6271 24.1309 19.0078C24.1309 20.3885 25.2501 21.5078 26.6309 21.5078Z" fill="#333333"/>
</svg>
