<svg width="52" height="60" viewBox="0 0 52 60" fill="none" xmlns="http://www.w3.org/2000/svg">
<path d="M19.6351 1C19.6256 1.91558 19.1763 2.79576 18.5149 3.43642C17.8534 4.07709 16.9942 4.49004 16.1016 4.73192C17.8856 5.37258 19.2668 7.0067 19.5874 8.85909C20.3335 7.07631 22.1437 5.77846 24.0875 5.63215C22.0758 5.14487 20.4336 3.40929 19.6351 1Z" stroke="#333333" stroke-width="1.53383" stroke-linecap="round" stroke-linejoin="round"/>
<path d="M7.34921 10.8359C6.9893 12.4181 5.64739 13.7384 4.04688 14.0841C5.46148 14.8734 6.60318 16.1335 7.24076 17.6119C7.90933 15.8126 9.63737 14.4451 11.5573 14.1974C9.78872 13.6039 8.24064 12.3863 7.3504 10.8359H7.34921Z" stroke="#333333" stroke-width="1.53383" stroke-linecap="round" stroke-linejoin="round"/>
<path d="M44.2874 8.99219C44.2541 9.85703 43.7976 10.6629 43.1946 11.2894C42.5916 11.9147 41.8455 12.3855 41.1055 12.8468C42.0231 12.7819 42.6881 13.6621 43.166 14.4396C43.5092 14.9977 43.8584 15.5711 43.9919 16.2106C43.9788 15.8437 44.2076 15.5133 44.4459 15.2313C45.4661 14.0255 46.8676 13.1394 48.4025 12.7312C46.4338 12.651 44.6533 10.9991 44.2862 8.99219H44.2874Z" stroke="#333333" stroke-width="1.53383" stroke-linecap="round" stroke-linejoin="round"/>
<path d="M18.5724 25.4304L18.6225 25.3808C18.7178 26.904 19.1779 28.6054 18.259 29.8289C17.6476 30.643 16.5703 30.9828 15.5478 31.0324C14.6182 31.0772 13.6267 30.8944 12.9355 30.2761C12.4421 29.8348 12.1489 29.2142 11.9559 28.5842C11.5983 27.4185 11.5435 26.1855 11.528 24.9667C11.5125 23.7243 11.5364 22.4831 11.5995 21.2419C11.6639 19.9782 11.8188 18.6025 12.721 17.7058C13.7566 16.677 15.5728 16.6699 16.7586 17.5253C17.9444 18.3807 18.5009 19.9275 18.5283 21.4035C18.4211 20.2909 18.5534 19.1181 19.1385 18.1624C19.7237 17.2067 20.8248 16.513 21.9487 16.6203C22.9581 16.7171 23.8304 17.4321 24.3298 18.3064C24.8291 19.1806 25.0067 20.1989 25.0913 21.1994C25.2474 23.0388 25.1199 24.89 24.9912 26.7318C24.9364 27.5129 24.8744 28.3211 24.5002 29.0113C23.7661 30.3611 21.9081 30.8719 20.4602 30.3304C20.1217 30.2041 19.7928 30.0224 19.5687 29.7416C19.3268 29.4384 19.2279 29.049 19.1433 28.6703C18.9073 27.6132 18.7345 26.543 18.5713 25.4304H18.5724Z" stroke="#333333" stroke-width="1.53383" stroke-linecap="round" stroke-linejoin="round"/>
<path d="M12.1293 33.3791C12.028 35.5524 11.972 37.7293 11.9612 39.9049C11.9565 40.7816 12.0006 41.7585 12.631 42.3744C13.1351 42.8664 13.8859 42.9926 14.5867 43.0953C15.5043 43.2298 16.4231 43.3631 17.3408 43.4976C17.5255 45.6898 17.5708 47.8926 17.4743 50.0895C23.4509 50.4317 29.4752 50.7727 35.4017 49.9362C35.5042 48.1321 35.4673 46.321 35.2897 44.5229C37.1512 44.3825 39.2416 43.907 40.1759 42.3071C40.6919 41.4246 40.7479 40.3592 40.7908 39.3398C40.9946 34.5165 41.1984 29.679 40.8123 24.8664C40.7062 23.5414 40.4047 21.9981 39.1963 21.4211C38.6123 21.1427 37.9354 21.1604 37.2883 21.184C33.4497 21.3256 29.6098 21.4672 25.658 21.971C25.3732 23.1237 25.3327 24.3555 25.689 25.4893C26.0453 26.6232 26.8247 27.6485 27.8973 28.1782C29.5586 28.9982 31.5405 28.5357 33.3913 28.6738C33.6499 29.9174 33.6618 31.2117 33.427 32.46C31.6168 32.7408 29.7529 33.0487 28.2012 34.0115C26.6484 34.9743 25.4733 36.7688 25.8106 38.5516" stroke="#333333" stroke-width="1.53383" stroke-linecap="round" stroke-linejoin="round"/>
<path d="M31.8789 28.8125C32.0112 29.8071 32.731 30.7038 33.6808 31.0542" stroke="#333333" stroke-width="1.53383" stroke-linecap="round" stroke-linejoin="round"/>
<path d="M25.0312 28.1719C25.5878 29.3022 26.6258 30.1918 27.8366 30.5729C28.181 30.6814 28.5517 30.7581 28.8258 30.9906" stroke="#333333" stroke-width="1.53383" stroke-linecap="round" stroke-linejoin="round"/>
<path d="M6.89258 33.6016C6.59702 36.7447 8.61465 39.5917 9.48821 42.6287C10.2712 45.3507 10.1103 48.3298 9.03892 50.9527" stroke="#333333" stroke-width="1.53383" stroke-linecap="round" stroke-linejoin="round"/>
<path d="M25.3193 21.1864C25.1632 20.3357 25.2728 19.4402 25.628 18.6508C25.79 18.291 26.0046 17.95 26.2989 17.6845C26.8018 17.2315 27.4871 17.0403 28.1485 16.8846C28.6717 16.7619 29.2116 16.651 29.7431 16.73C30.6822 16.8716 31.4509 17.6043 31.8489 18.4585C32.2469 19.3128 32.3292 20.2767 32.4007 21.2182C32.3542 20.5917 32.3602 19.9617 32.4209 19.3375C32.4591 18.9446 32.521 18.5447 32.7081 18.1954C32.9358 17.7707 33.3302 17.4568 33.739 17.1973C34.5232 16.6982 35.498 16.3442 36.3823 16.638C37.0699 16.8669 37.5788 17.4509 37.9435 18.0727C38.5406 19.0921 38.8385 20.2814 38.7908 21.4589" stroke="#333333" stroke-width="1.53383" stroke-linecap="round" stroke-linejoin="round"/>
<path d="M38.7344 20.0938C41.2811 20.5987 43.791 21.473 45.9027 22.9714C48.0145 24.4699 49.7056 26.6373 50.2991 29.141" stroke="#333333" stroke-width="1.53383" stroke-linecap="round" stroke-linejoin="round"/>
<path d="M50.8489 32.2969C50.9263 36.9326 48.6441 41.3193 45.747 44.9604C44.8055 46.1438 43.777 47.3024 43.2336 48.7088C42.6902 50.1152 42.7438 51.8709 43.808 52.9469C44.2418 53.3858 44.8079 53.6784 45.3966 53.8731C46.5776 54.2648 47.8826 54.2813 49.0732 53.9191C48.8908 52.8254 48.5619 51.7564 48.0971 50.7476C49.0648 50.1022 50.0313 49.458 50.999 48.8126C48.6918 48.5366 46.1796 48.1614 44.6065 46.4682" stroke="#333333" stroke-width="1.53383" stroke-linecap="round" stroke-linejoin="round"/>
<path d="M41.125 30.3594C41.8949 30.7711 42.7637 31.0142 43.4561 31.5451C44.2081 32.1221 44.6788 32.9822 45.059 33.8447C46.4736 37.0516 46.9205 40.669 46.3306 44.119" stroke="#333333" stroke-width="1.53383" stroke-linecap="round" stroke-linejoin="round"/>
<path d="M45.5755 34.8594C44.4803 37.4822 43.6091 40.1959 42.9739 42.9639C42.2994 45.9041 41.918 49.111 43.2242 51.8353" stroke="#333333" stroke-width="1.53383" stroke-linecap="round" stroke-linejoin="round"/>
<path d="M19.6351 1C19.6256 1.91558 19.1763 2.79576 18.5149 3.43642C17.8534 4.07709 16.9942 4.49004 16.1016 4.73192C17.8856 5.37258 19.2668 7.0067 19.5874 8.85909C20.3335 7.07631 22.1437 5.77846 24.0875 5.63215C22.0758 5.14487 20.4336 3.40929 19.6351 1Z" stroke="#333333" stroke-width="1.53383" stroke-linecap="round" stroke-linejoin="round"/>
<path d="M7.34921 10.8359C6.9893 12.4181 5.64739 13.7384 4.04688 14.0841C5.46148 14.8734 6.60318 16.1335 7.24076 17.6119C7.90933 15.8126 9.63737 14.4451 11.5573 14.1974C9.78872 13.6039 8.24064 12.3863 7.3504 10.8359H7.34921Z" stroke="#333333" stroke-width="1.53383" stroke-linecap="round" stroke-linejoin="round"/>
<path d="M44.2874 8.99219C44.2541 9.85703 43.7976 10.6629 43.1946 11.2894C42.5916 11.9147 41.8455 12.3855 41.1055 12.8468C42.0231 12.7819 42.6881 13.6621 43.166 14.4396C43.5092 14.9977 43.8584 15.5711 43.9919 16.2106C43.9788 15.8437 44.2076 15.5133 44.4459 15.2313C45.4661 14.0255 46.8676 13.1394 48.4025 12.7312C46.4338 12.651 44.6533 10.9991 44.2862 8.99219H44.2874Z" stroke="#333333" stroke-width="1.53383" stroke-linecap="round" stroke-linejoin="round"/>
<path d="M18.5724 25.4304L18.6225 25.3808C18.7178 26.904 19.1779 28.6054 18.259 29.8289C17.6476 30.643 16.5703 30.9828 15.5478 31.0324C14.6182 31.0772 13.6267 30.8944 12.9355 30.2761C12.4421 29.8348 12.1489 29.2142 11.9559 28.5842C11.5983 27.4185 11.5435 26.1855 11.528 24.9667C11.5125 23.7243 11.5364 22.4831 11.5995 21.2419C11.6639 19.9782 11.8188 18.6025 12.721 17.7058C13.7566 16.677 15.5728 16.6699 16.7586 17.5253C17.9444 18.3807 18.5009 19.9275 18.5283 21.4035C18.4211 20.2909 18.5534 19.1181 19.1385 18.1624C19.7237 17.2067 20.8248 16.513 21.9487 16.6203C22.9581 16.7171 23.8304 17.4321 24.3298 18.3064C24.8291 19.1806 25.0067 20.1989 25.0913 21.1994C25.2474 23.0388 25.1199 24.89 24.9912 26.7318C24.9364 27.5129 24.8744 28.3211 24.5002 29.0113C23.7661 30.3611 21.9081 30.8719 20.4602 30.3304C20.1217 30.2041 19.7928 30.0224 19.5687 29.7416C19.3268 29.4384 19.2279 29.049 19.1433 28.6703C18.9073 27.6132 18.7345 26.543 18.5713 25.4304H18.5724Z" stroke="#333333" stroke-width="1.53383" stroke-linecap="round" stroke-linejoin="round"/>
<path d="M12.1293 33.3791C12.028 35.5524 11.972 37.7293 11.9612 39.9049C11.9565 40.7816 12.0006 41.7585 12.631 42.3744C13.1351 42.8664 13.8859 42.9926 14.5867 43.0953C15.5043 43.2298 16.4231 43.3631 17.3408 43.4976C17.5255 45.6898 17.4743 47.8903 17.4743 50.0895C23.4342 50.0895 29.4359 49.9362 35.4017 49.9362C35.5042 48.1321 35.2897 46.3069 35.2897 44.5229C37.1512 44.3825 39.2416 43.907 40.1759 42.3071C40.6919 41.4246 40.7479 40.3592 40.7908 39.3398C40.9946 34.5165 41.1984 29.679 40.8123 24.8664C40.7062 23.5414 40.4047 21.9981 39.1963 21.4211C38.6123 21.1427 37.9354 21.1604 37.2883 21.184C33.4497 21.3256 29.6098 21.4672 25.658 21.971C25.3732 23.1237 25.3327 24.3555 25.689 25.4893C26.0453 26.6232 26.8247 27.6485 27.8973 28.1782C29.5586 28.9982 31.5405 28.5357 33.3913 28.6738C33.6499 29.9174 33.6618 31.2117 33.427 32.46C31.6168 32.7408 29.7529 33.0487 28.2012 34.0115C26.6484 34.9743 25.4733 36.7688 25.8106 38.5516" stroke="#333333" stroke-width="1.53383" stroke-linecap="round" stroke-linejoin="round"/>
<path d="M31.8789 28.8125C32.0112 29.8071 32.731 30.7038 33.6808 31.0542" stroke="#333333" stroke-width="1.53383" stroke-linecap="round" stroke-linejoin="round"/>
<path d="M25.0312 28.1719C25.5878 29.3022 26.6258 30.1918 27.8366 30.5729C28.181 30.6814 28.5517 30.7581 28.8258 30.9906" stroke="#333333" stroke-width="1.53383" stroke-linecap="round" stroke-linejoin="round"/>
<path d="M11.6973 20.5938C9.46634 20.6976 7.35098 21.7654 5.71948 23.2756C4.08797 24.7858 2.90457 26.7173 1.98811 28.7336C1.62463 29.5324 1.29928 30.3536 1.13482 31.2137C0.956058 32.1553 0.976317 33.1239 1.07285 34.0761C1.42799 37.5626 2.83187 40.9382 5.05925 43.6613C6.41069 45.3143 8.09344 46.7903 8.83828 48.7855C9.13265 49.5748 9.25659 50.4892 8.86689 51.2384C8.60709 51.7375 8.14945 52.1056 7.67871 52.4195C6.25576 53.3728 4.59685 53.9792 2.88907 54.1716C3.42894 53.3079 3.72568 52.2979 3.73879 51.2833C3.74117 51.1075 3.73402 50.9281 3.67205 50.7641C3.59221 50.5494 3.42655 50.3795 3.26567 50.2155C2.73296 49.6739 2.20144 49.1324 1.66872 48.5908C2.3647 49.0616 3.30142 48.8539 4.10943 48.6144C5.06997 48.3289 6.10799 47.9584 6.61567 47.1018C7.12097 46.2499 6.94698 45.1739 6.68718 44.2194C6.08654 42.0119 5.10215 39.8209 5.31071 37.5449C5.48947 35.591 6.568 33.7811 8.04935 32.4785C9.53069 31.176 10.695 30.4209 12.6137 29.9277" stroke="#333333" stroke-width="1.53383" stroke-linecap="round" stroke-linejoin="round"/>
<path d="M6.89258 33.6016C6.59702 36.7447 8.61465 39.5917 9.48821 42.6287C10.2712 45.3507 10.1103 48.3298 9.03892 50.9527" stroke="#333333" stroke-width="1.53383" stroke-linecap="round" stroke-linejoin="round"/>
<path d="M25.3193 21.1864C25.1632 20.3357 25.2728 19.4402 25.628 18.6508C25.79 18.291 26.0046 17.95 26.2989 17.6845C26.8018 17.2315 27.4871 17.0403 28.1485 16.8846C28.6717 16.7619 29.2116 16.651 29.7431 16.73C30.6822 16.8716 31.4509 17.6043 31.8489 18.4585C32.2469 19.3128 32.3292 20.2767 32.4007 21.2182C32.3542 20.5917 32.3602 19.9617 32.4209 19.3375C32.4591 18.9446 32.521 18.5447 32.7081 18.1954C32.9358 17.7707 33.3302 17.4568 33.739 17.1973C34.5232 16.6982 35.498 16.3442 36.3823 16.638C37.0699 16.8669 37.5788 17.4509 37.9435 18.0727C38.5406 19.0921 38.8385 20.2814 38.7908 21.4589" stroke="#333333" stroke-width="1.53383" stroke-linecap="round" stroke-linejoin="round"/>
<path d="M38.7344 20.0938C41.2811 20.5987 43.791 21.473 45.9027 22.9714C48.0145 24.4699 49.7056 26.6373 50.2991 29.141" stroke="#333333" stroke-width="1.53383" stroke-linecap="round" stroke-linejoin="round"/>
<path d="M50.8489 32.2969C50.9263 36.9326 48.6441 41.3193 45.747 44.9604C44.8055 46.1438 43.777 47.3024 43.2336 48.7088C42.6902 50.1152 42.7438 51.8709 43.808 52.9469C44.2418 53.3858 44.8079 53.6784 45.3966 53.8731C46.5776 54.2648 47.8826 54.2813 49.0732 53.9191C48.8908 52.8254 48.5619 51.7564 48.0971 50.7476C49.0648 50.1022 50.0313 49.458 50.999 48.8126C48.6918 48.5366 46.1796 48.1614 44.6065 46.4682" stroke="#333333" stroke-width="1.53383" stroke-linecap="round" stroke-linejoin="round"/>
<path d="M41.125 30.3594C41.8949 30.7711 42.7637 31.0142 43.4561 31.5451C44.2081 32.1221 44.6788 32.9822 45.059 33.8447C46.4736 37.0516 46.9205 40.669 46.3306 44.119" stroke="#333333" stroke-width="1.53383" stroke-linecap="round" stroke-linejoin="round"/>
<path d="M45.5755 34.8594C44.4803 37.4822 43.6091 40.1959 42.9739 42.9639C42.2994 45.9041 41.918 49.111 43.2242 51.8353" stroke="#333333" stroke-width="1.53383" stroke-linecap="round" stroke-linejoin="round"/>
<path d="M31.0222 59.0009H16.3637C15.5736 59.0009 14.9336 58.3673 14.9336 57.5851V51.4002C14.9336 50.618 15.5736 49.9844 16.3637 49.9844H36.7903C37.5804 49.9844 38.2204 50.618 38.2204 51.4002V57.5851C38.2204 58.3673 37.5804 59.0009 36.7903 59.0009H33.1268" stroke="#333333" stroke-width="1.53383" stroke-linecap="round" stroke-linejoin="round"/>
<path d="M19.8418 56.4848C21.0186 56.4848 21.9726 55.5403 21.9726 54.3752C21.9726 53.2101 21.0186 52.2656 19.8418 52.2656C18.665 52.2656 17.7109 53.2101 17.7109 54.3752C17.7109 55.5403 18.665 56.4848 19.8418 56.4848Z" stroke="#333333" stroke-width="1.53383" stroke-linecap="round" stroke-linejoin="round"/>
</svg>
